PathFileType	4	(X/Y/Z)	SB25.trc
DataRate	CameraRate	NumFrames	NumMarkers	Units	OrigDataRate	OrigDataStartFrame	OrigNumFrames
60.0	60.0	12	25	m	60.0	399	531
Frame#	Time	R.ASIS			L.ASIS			V.Sacral			R.Knee.Lat			R.Knee.Med			L.Knee.Lat			L.Knee.Med			R.Ankle.Lat			R.Ankle.Med			L.Ankle.Lat			L.Ankle.Med			R.Shank.Front			L.Shank.Front			R.Heel			L.Heel			R.Toe.Tip			L.Toe.Tip			R.Midfoot.Lat			L.Midfoot.Lat			R.Toe.Med			L.Toe.Med			Sternum			Top.Head			R.Acromium			L.Acromium		
		X1	Y1	Z1	X2	Y2	Z2	X3	Y3	Z3	X4	Y4	Z4	X5	Y5	Z5	X6	Y6	Z6	X7	Y7	Z7	X8	Y8	Z8	X9	Y9	Z9	X10	Y10	Z10	X11	Y11	Z11	X12	Y12	Z12	X13	Y13	Z13	X14	Y14	Z14	X15	Y15	Z15	X16	Y16	Z16	X17	Y17	Z17	X18	Y18	Z18	X19	Y19	Z19	X20	Y20	Z20	X21	Y21	Z21	X22	Y22	Z22	X23	Y23	Z23	X24	Y24	Z24	X25	Y25	Z25

399	6.633333	46.728089	0.917020	0.272627	46.713392	0.918934	-0.046386	46.567178	0.828955	0.119322	46.475717	0.354173	0.194928	46.482706	0.365659	0.109726	47.005601	0.492013	0.039658	46.992667	0.497756	0.126007	46.150761	0.099551	0.140483	46.155456	0.105295	0.078537	46.731118	0.178044	0.035897	46.723817	0.181872	0.097113	46.493134	0.296739	0.147791	47.019261	0.442237	0.091280	46.056071	0.145498	0.061953	46.635487	0.153156	0.061132	46.075155	-0.145498	0.084167	46.830710	-0.038289	0.127046	46.031041	-0.042118	0.111176	46.764907	0.005743	0.060822	46.072445	-0.045947	0.028582	46.759795	0.032546	0.149361	46.749784	1.368829	0.119848	46.611290	1.721088	0.162602	46.676257	1.332455	0.317157	46.615571	1.361172	-0.048473
400	6.650000	46.873464	0.924678	0.265539	46.838327	0.924678	-0.050763	46.702021	0.834699	0.124748	46.600339	0.367574	0.201710	46.603053	0.379060	0.116716	47.141695	0.509243	0.035593	47.130430	0.513072	0.121004	46.247226	0.149327	0.167496	46.249313	0.151241	0.104819	46.977130	0.128268	0.035903	46.972436	0.128268	0.097849	46.606598	0.310140	0.154259	47.174127	0.467125	0.085443	46.168700	0.214418	0.086463	46.885462	0.059348	0.072088	46.103104	-0.068920	0.094805	47.136583	-0.074663	0.124133	46.102373	0.036374	0.132556	47.054615	-0.040203	0.060412	46.143776	0.024888	0.049962	47.043558	-0.021059	0.150098	46.879517	1.376487	0.108380	46.749053	1.726831	0.157600	46.825909	1.340113	0.309860	46.734562	1.363086	-0.051704
401	6.666667	47.007890	0.928507	0.262414	46.966808	0.926592	-0.052741	46.834047	0.838528	0.125169	46.731845	0.373317	0.209013	46.733619	0.382889	0.122351	47.257557	0.493927	0.038516	47.246292	0.501585	0.123927	46.346194	0.216332	0.175528	46.348281	0.220161	0.112852	47.206873	0.084236	0.053845	47.199572	0.086150	0.115061	46.728404	0.315884	0.156035	47.303025	0.465211	0.092016	46.295199	0.302483	0.096582	47.122296	0.000000	0.094828	46.163277	0.045947	0.080727	47.396151	-0.070835	0.156050	46.187888	0.143584	0.128387	47.309699	-0.053605	0.088262	46.230230	0.126353	0.047461	47.294367	-0.038289	0.178157	47.016132	1.378402	0.097433	46.886607	1.730660	0.148321	46.966070	1.345856	0.301312	46.868779	1.361172	-0.059105
402	6.683333	47.138040	0.930421	0.259497	47.098626	0.924678	-0.056597	46.965136	0.840442	0.123920	46.871693	0.371403	0.211623	46.874406	0.379060	0.126630	47.356525	0.461382	0.046548	47.346928	0.472868	0.131020	46.462786	0.296739	0.175843	46.464873	0.304397	0.113167	47.411587	0.053605	0.085866	47.400010	0.055519	0.147290	46.857094	0.315884	0.158332	47.408145	0.447981	0.103177	46.435048	0.400119	0.099192	47.348389	-0.038289	0.125806	46.254841	0.178044	0.059976	47.624746	-0.045947	0.203193	46.293426	0.266108	0.112955	47.542361	-0.051690	0.130921	46.337645	0.243135	0.035367	47.519208	-0.038289	0.218625	47.153686	1.378402	0.088154	47.026560	1.732574	0.135497	47.101017	1.353514	0.291303	47.008002	1.357343	-0.069322
403	6.700000	47.270796	0.930421	0.257310	47.229715	0.920849	-0.057845	47.095285	0.840442	0.121003	47.020301	0.363745	0.218092	47.022076	0.371403	0.131430	47.451947	0.430751	0.052182	47.442351	0.444152	0.136654	46.605241	0.371403	0.179184	46.608267	0.379060	0.118176	47.579488	0.038289	0.118824	47.565303	0.040203	0.179519	46.996212	0.315884	0.163550	47.509720	0.425007	0.111940	46.593667	0.476697	0.100030	47.535061	-0.067006	0.156992	46.375814	0.292910	0.044649	47.813296	-0.034460	0.237716	46.427435	0.373317	0.101278	47.730911	-0.055519	0.165444	46.472592	0.342686	0.025358	47.703481	-0.040203	0.253357	47.289572	1.374573	0.079814	47.163906	1.730660	0.121943	47.235234	1.357343	0.283902	47.147224	1.351599	-0.079539
404	6.716667	47.403553	0.928507	0.255123	47.362472	0.915106	-0.060032	47.228981	0.834699	0.120485	47.175062	0.354173	0.227690	47.177775	0.359916	0.142697	47.551436	0.402034	0.053332	47.541840	0.415435	0.137803	46.767407	0.428836	0.182420	46.772101	0.432665	0.120474	47.713078	0.022973	0.133740	47.704108	0.028717	0.195895	47.144299	0.310140	0.176902	47.610670	0.402034	0.107875	46.773457	0.528387	0.095550	47.674491	-0.091893	0.186195	46.529011	0.377146	0.039751	47.956168	-0.051690	0.249608	46.593459	0.453724	0.095754	47.870654	-0.080407	0.183488	46.636218	0.413520	0.023380	47.846562	-0.053605	0.269524	47.421182	1.370744	0.071683	47.301251	1.728745	0.108389	47.360900	1.357343	0.276918	47.275497	1.347770	-0.085793
405	6.733333	47.536310	0.922763	0.252936	47.496897	0.909362	-0.063158	47.363406	0.827041	0.117359	47.338583	0.340772	0.241147	47.340358	0.342686	0.154485	47.650717	0.373317	0.050205	47.641121	0.386718	0.134677	46.946467	0.474783	0.180547	46.952100	0.472868	0.120270	47.818929	-0.003829	0.142294	47.813296	0.007658	0.202572	47.300207	0.302483	0.192444	47.709742	0.375232	0.100473	46.969412	0.566676	0.088567	47.776900	-0.107209	0.212061	46.709010	0.444152	0.039546	48.064209	-0.086150	0.250341	46.780132	0.513072	0.091796	47.970561	-0.112952	0.193189	46.816947	0.463296	0.020569	47.956689	-0.076578	0.277870	47.549454	1.365001	0.065429	47.439536	1.723002	0.096504	47.484896	1.353514	0.270872	47.401163	1.342027	-0.092777
406	6.750000	47.669797	0.917020	0.248142	47.629654	0.901704	-0.065345	47.497831	0.819383	0.114234	47.507840	0.327370	0.249181	47.510553	0.327370	0.164187	47.748329	0.348429	0.048017	47.739672	0.361830	0.134158	47.133140	0.499671	0.176589	47.139503	0.495842	0.113704	47.892451	-0.036374	0.155853	47.891094	-0.022973	0.215922	47.467795	0.292910	0.201417	47.808293	0.344600	0.099953	47.159422	0.589650	0.082731	47.843747	-0.122525	0.229374	46.891615	0.482441	0.040072	48.132829	-0.118696	0.251281	46.968474	0.549446	0.086899	48.035322	-0.143584	0.202889	47.001221	0.495842	0.020156	48.030732	-0.101466	0.284546	47.677727	1.359257	0.059174	47.571876	1.715344	0.085765	47.604617	1.349685	0.265034	47.529435	1.332455	-0.099032
407	6.766667	47.802554	0.907448	0.245955	47.761472	0.890218	-0.069200	47.630588	0.807897	0.112047	47.686378	0.312055	0.254191	47.688153	0.312055	0.167528	47.844690	0.325456	0.055320	47.841977	0.342686	0.140313	47.321482	0.507328	0.171692	47.330452	0.503499	0.109537	47.916019	-0.074663	0.182134	47.912055	-0.059348	0.241473	47.643518	0.281424	0.201421	47.904862	0.313969	0.111531	47.341820	0.599222	0.078981	47.865543	-0.147412	0.236883	47.072344	0.493927	0.037260	48.156815	-0.151241	0.250968	47.151809	0.560933	0.084817	48.055971	-0.168471	0.204454	47.183618	0.507328	0.016406	48.051589	-0.135926	0.290386	47.806000	1.349685	0.052920	47.693995	1.703858	0.076382	47.728614	1.340113	0.258989	47.661045	1.319054	-0.107163
408	6.783333	47.936041	0.895961	0.241160	47.890683	0.878731	-0.073786	47.760738	0.796410	0.109130	47.873051	0.300568	0.250232	47.870551	0.298654	0.163778	47.943866	0.306311	0.067628	47.944490	0.327370	0.150744	47.509823	0.501585	0.166794	47.518793	0.497756	0.104640	47.904026	-0.093808	0.199862	47.897454	-0.076578	0.258471	47.829252	0.269937	0.195793	47.998302	0.281424	0.129262	47.523487	0.597307	0.077838	47.850839	-0.170386	0.234171	47.256618	0.478612	0.036848	48.143049	-0.181872	0.249925	47.334415	0.547532	0.085343	48.042935	-0.187616	0.200804	47.369561	0.497756	0.015054	48.037093	-0.170386	0.291950	47.935211	1.338198	0.048335	47.814447	1.690456	0.067938	47.850004	1.330540	0.252213	47.796931	1.301824	-0.115503
409	6.800000	48.066190	0.890218	0.238243	48.027716	0.872988	-0.076182	47.895163	0.792581	0.106004	48.063792	0.300568	0.241789	48.057954	0.300568	0.157212	48.039288	0.294825	0.073261	48.044188	0.317798	0.156169	47.687215	0.482441	0.165860	47.696185	0.482441	0.103705	47.907154	-0.084236	0.193709	47.898914	-0.065091	0.253257	48.018324	0.269937	0.188289	48.085173	0.262279	0.135313	47.694204	0.580077	0.080658	47.843747	-0.170386	0.229374	47.446316	0.432665	0.042170	48.131891	-0.199102	0.249612	47.512224	0.507328	0.092960	48.033237	-0.202931	0.195277	47.549768	0.467125	0.019125	48.028333	-0.195274	0.288091	48.063692	1.334369	0.046356	47.933229	1.684713	0.060432	47.970664	1.326712	0.248044	47.933755	1.294166	-0.122174
410	6.816667	48.196549	0.897876	0.239602	48.168294	0.880645	-0.076178	48.031988	0.796410	0.099333	48.261937	0.321627	0.226985	48.253491	0.321627	0.141678	48.131478	0.294825	0.065338	48.136377	0.315884	0.148246	47.857202	0.446066	0.171287	47.864503	0.449895	0.110071	47.943864	-0.061262	0.173061	47.939900	-0.042118	0.232400	48.218137	0.289081	0.172546	48.170271	0.258450	0.122592	47.845628	0.543703	0.092133	47.858035	-0.134011	0.223534	47.637577	0.348429	0.061989	48.137627	-0.218247	0.244189	47.686382	0.432665	0.113612	48.033237	-0.218247	0.195277	47.722779	0.403948	0.033834	48.031670	-0.197188	0.286214	48.193320	1.342027	0.050322	48.058164	1.690456	0.056055	48.087986	1.332455	0.245752	48.075793	1.299909	-0.127385
